<svg height="830" width="720" xmlns="http://www.w3.org/2000/svg">
<rect height="830" fill="#555" width="720"></rect>
<text fill="#7f7" font-family="Courier New" font-size="12" xml:space="preserve">
<tspan x="10" y="26">└─┬ brfs@1.4.3 </tspan>
<tspan x="10" y="42">  ├─┬ quote-stream@1.0.2 </tspan>
<tspan x="10" y="58">  │ ├── buffer-equal@0.0.1 </tspan>
<tspan x="10" y="74">  │ └── minimist@1.2.0 </tspan>
<tspan x="10" y="90">  ├─┬ resolve@1.3.2 </tspan>
<tspan x="10" y="106">  │ └── path-parse@1.0.5 </tspan>
<tspan x="10" y="122">  ├─┬ static-module@1.3.1 </tspan>
<tspan x="10" y="138">  │ ├─┬ concat-stream@1.4.10 </tspan>
<tspan x="10" y="154">  │ │ ├── inherits@2.0.3 </tspan>
<tspan x="10" y="170">  │ │ ├─┬ readable-stream@1.1.14 </tspan>
<tspan x="10" y="186">  │ │ │ └── isarray@0.0.1 </tspan>
<tspan x="10" y="202">  │ │ └── typedarray@0.0.6 </tspan>
<tspan x="10" y="218">  │ ├─┬ duplexer2@0.0.2 </tspan>
<tspan x="10" y="234">  │ │ └─┬ readable-stream@1.1.14 </tspan>
<tspan x="10" y="250">  │ │   └── isarray@0.0.1 </tspan>
<tspan x="10" y="266">  │ ├─┬ escodegen@1.3.3 </tspan>
<tspan x="10" y="282">  │ │ ├── esprima@1.1.1 </tspan>
<tspan x="10" y="298">  │ │ ├── estraverse@1.5.1 </tspan>
<tspan x="10" y="314">  │ │ ├── esutils@1.0.0 </tspan>
<tspan x="10" y="330">  │ │ └─┬ source-map@0.1.43 </tspan>
<tspan x="10" y="346">  │ │   └── amdefine@1.0.1 </tspan>
<tspan x="10" y="362">  │ ├─┬ falafel@1.2.0 </tspan>
<tspan x="10" y="378">  │ │ ├── acorn@1.2.2 </tspan>
<tspan x="10" y="394">  │ │ ├── foreach@2.0.5 </tspan>
<tspan x="10" y="410">  │ │ ├── isarray@0.0.1 </tspan>
<tspan x="10" y="426">  │ │ └── object-keys@1.0.11 </tspan>
<tspan x="10" y="442">  │ ├─┬ has@1.0.1 </tspan>
<tspan x="10" y="458">  │ │ └── function-bind@1.1.0 </tspan>
<tspan x="10" y="474">  │ ├── object-inspect@0.4.0 </tspan>
<tspan x="10" y="490">  │ ├─┬ quote-stream@0.0.0 </tspan>
<tspan x="10" y="506">  │ │ └── minimist@0.0.8 </tspan>
<tspan x="10" y="522">  │ ├─┬ readable-stream@1.0.34 </tspan>
<tspan x="10" y="538">  │ │ ├── core-util-is@1.0.2 </tspan>
<tspan x="10" y="554">  │ │ ├── isarray@0.0.1 </tspan>
<tspan x="10" y="570">  │ │ └── string_decoder@0.10.31 </tspan>
<tspan x="10" y="586">  │ ├── shallow-copy@0.0.1 </tspan>
<tspan x="10" y="602">  │ ├─┬ static-eval@0.2.4 </tspan>
<tspan x="10" y="618">  │ │ └─┬ escodegen@0.0.28 </tspan>
<tspan x="10" y="634">  │ │   ├── esprima@1.0.4 </tspan>
<tspan x="10" y="650">  │ │   └── estraverse@1.3.2 </tspan>
<tspan x="10" y="666">  │ └─┬ through2@0.4.2 </tspan>
<tspan x="10" y="682">  │   └─┬ xtend@2.1.2 </tspan>
<tspan x="10" y="698">  │     └── object-keys@0.4.0 </tspan>
<tspan x="10" y="714">  └─┬ through2@2.0.3 </tspan>
<tspan x="10" y="730">    ├─┬ readable-stream@2.2.6 </tspan>
<tspan x="10" y="746">    │ ├── buffer-shims@1.0.0 </tspan>
<tspan x="10" y="762">    │ ├── isarray@1.0.0 </tspan>
<tspan x="10" y="778">    │ ├── process-nextick-args@1.0.7 </tspan>
<tspan x="10" y="794">    │ └── util-deprecate@1.0.2 </tspan>
<tspan x="10" y="810">    └── xtend@4.0.1</tspan>
</text>
</svg>
